<?xml version="1.0" encoding="utf-8"?>
<!-- Generator: Adobe Illustrator 18.1.1, SVG Export Plug-In . SVG Version: 6.00 Build 0)  -->
<!DOCTYPE svg PUBLIC "-//W3C//DTD SVG 1.1//EN" "http://www.w3.org/Graphics/SVG/1.1/DTD/svg11.dtd">
<svg version="1.1" id="Layer_1" xmlns="http://www.w3.org/2000/svg" xmlns:xlink="http://www.w3.org/1999/xlink" x="0px" y="0px"
	 width="94px" height="32px" viewBox="0 0 94 32" enable-background="new 0 0 94 32" xml:space="preserve">
<g>
	<g>
		<path fill="#FFFFFF" d="M80,14.5V6h-3v8.5c0,1.7-1.4,3.5-3,3.5h-3V6h-3v21h3v-6h3c1.7,0,3,0.8,3,2.5V27h3v-3.5
			c0-1.8-0.8-3.4-2-4.5C79.2,17.9,80,16.3,80,14.5z"/>
		<path fill="#FFFFFF" d="M63,6v14.5c0,1.7-1.3,3-3,3s-3-1.3-3-3V6h-3v14.5c0,3.3,2.7,6,6,6s6-2.7,6-6V6H63z"/>
		<path fill="#FFFFFF" d="M91,6v14.5c0,1.7-1.3,3-3,3s-3-1.3-3-3V6h-3v14.5c0,3.3,2.7,6,6,6s6-2.7,6-6V6H91z"/>
		<path fill="#FFFFFF" d="M49,20.5c0,1.7-1.3,3-3,3s-3-1.3-3-3V18h-3v2.5c0,3.3,2.7,6,6,6s6-2.7,6-6V6h-3V20.5z"/>
	</g>
	<g>
		<path fill="#FFFFFF" d="M23,24.5c1.1,0,1.9-0.8,2-1.8c0-0.1,0-0.1,0-0.2c0-0.1,0-0.1,0-0.2c-0.1-1-0.9-1.8-2-1.8c-1.1,0-2,0.9-2,2
			S21.9,24.5,23,24.5z"/>
		<path fill="#FFFFFF" d="M19.9,13.3L32,5.6C31.9,2.3,29.2,0,26,0H6C2.7,0,0,2.2,0,5.5v11.8l11.9-8L19.9,13.3z M7,7.5v2.7l-2,1.3
			V6.5C5,5.4,5.9,5,7,5h18c1,0,1.9,0.5,2,1.5l-2,1.1V7.5C25,7,24.5,7,24,7H8C7.4,7,7,7,7,7.5z"/>
		<path fill="#FFFFFF" d="M12.1,11.7L0,19.7v5.8C0,28.8,2.7,32,6,32h20c3.3,0,6-3.2,6-6.5V7.7l-11.9,8L12.1,11.7z M25,17.5v-2.7
			l2-1.3v11.1c0,1.1-0.9,2.5-2,2.5H7c-1.1,0-2-1.4-2-2.5v-5.7l2-1.3v0.1C7,18.1,7.4,19,8,19h16C24.5,19,25,18.1,25,17.5z"/>
		<path fill="#FFFFFF" d="M7,22.3c0,0.1,0,0.1,0,0.2c0,0.1,0,0.1,0,0.2c0.1,1,0.9,1.8,2,1.8c1.1,0,2-0.9,2-2s-0.9-2-2-2
			C7.9,20.5,7.1,21.3,7,22.3z"/>
	</g>
</g>
</svg>
